<!-- Generator: Adobe Illustrator 23.1.1, SVG Export Plug-In  -->
<svg version="1.1" xmlns="http://www.w3.org/2000/svg" xmlns:xlink="http://www.w3.org/1999/xlink" x="0px" y="0px" width="168px"
     height="29px" viewBox="0 0 168 29" style="enable-background:new 0 0 168 29;" xml:space="preserve">
<style type="text/css">
	.st0{fill:#00B5CD;stroke:#013D42;stroke-miterlimit:10;}
	.st1{fill:#FFFFFF;}
	.st2{fill-rule:evenodd;clip-rule:evenodd;fill:#FFFFFF;}
</style>
    <defs>
</defs>
    <path class="st0" d="M163.5,28.5H4.5c-2.21,0-4-1.79-4-4V4.5c0-2.21,1.79-4,4-4H163.5c2.21,0,4,1.79,4,4V24.5
	C167.5,26.71,165.71,28.5,163.5,28.5z"/>
    <g>
	<path class="st1" d="M36.61,10.9c-0.48,0-0.87,0.12-1.15,0.37c-0.28,0.25-0.47,0.59-0.54,1.04c-0.09,0.49-0.03,0.89,0.17,1.21
		s0.59,0.62,1.17,0.91c0.75,0.38,1.24,0.84,1.47,1.39s0.28,1.21,0.14,1.96c-0.09,0.47-0.23,0.9-0.42,1.3
		c-0.19,0.4-0.45,0.74-0.77,1.03c-0.32,0.29-0.7,0.51-1.13,0.67S34.6,21,34.03,21c-0.41,0-0.82-0.04-1.22-0.13
		c-0.41-0.09-0.75-0.22-1.01-0.4l0.33-1.85c0.51,0.55,1.17,0.83,1.98,0.83c1.02,0,1.61-0.51,1.79-1.54
		c0.09-0.48,0.04-0.86-0.15-1.14c-0.19-0.28-0.53-0.55-1.03-0.81c-0.72-0.37-1.23-0.82-1.53-1.37c-0.3-0.55-0.37-1.27-0.21-2.17
		c0.17-0.97,0.57-1.73,1.2-2.26c0.63-0.54,1.47-0.81,2.53-0.81c0.38,0,0.75,0.04,1.12,0.13c0.37,0.09,0.66,0.21,0.89,0.37
		l-0.31,1.74c-0.19-0.23-0.45-0.4-0.77-0.52C37.31,10.95,36.97,10.9,36.61,10.9z"/>
        <path class="st1" d="M42.06,20.99c-1.02,0-1.71-0.32-2.09-0.97c-0.38-0.65-0.43-1.69-0.18-3.13l1.3-7.35H43l-1.35,7.72
		c-0.14,0.79-0.16,1.36-0.06,1.68c0.1,0.33,0.36,0.49,0.75,0.49s0.71-0.16,0.93-0.49c0.22-0.33,0.4-0.89,0.54-1.68l1.35-7.72h1.91
		l-1.3,7.35c-0.26,1.44-0.69,2.49-1.3,3.13C43.88,20.66,43.07,20.99,42.06,20.99z"/>
        <path class="st1" d="M49.6,16.62l-0.74,4.2h-1.91l1.98-11.28h2.56c1.15,0,1.97,0.27,2.46,0.82s0.62,1.45,0.41,2.72
		c-0.23,1.26-0.68,2.17-1.36,2.72s-1.59,0.82-2.74,0.82H49.6z M52.43,13.07c0.13-0.77,0.1-1.3-0.1-1.59
		c-0.2-0.29-0.58-0.43-1.14-0.43h-0.61l-0.73,4.04h0.61c0.56,0,0.99-0.14,1.3-0.43C52.07,14.38,52.29,13.85,52.43,13.07z"/>
        <path class="st1" d="M57.29,16.62l-0.74,4.2h-1.91l1.98-11.28h2.56c1.15,0,1.97,0.27,2.46,0.82s0.62,1.45,0.41,2.72
		c-0.23,1.26-0.68,2.17-1.36,2.72s-1.59,0.82-2.74,0.82H57.29z M60.12,13.07c0.13-0.77,0.1-1.3-0.1-1.59
		c-0.2-0.29-0.58-0.43-1.14-0.43h-0.61l-0.73,4.04h0.61c0.56,0,0.99-0.14,1.3-0.43C59.75,14.38,59.98,13.85,60.12,13.07z"/>
        <path class="st1" d="M63.03,15.17c0.19-1.04,0.41-1.94,0.66-2.67c0.25-0.74,0.55-1.34,0.89-1.81c0.34-0.47,0.73-0.81,1.16-1.03
		c0.43-0.21,0.92-0.32,1.46-0.32c0.54,0,0.99,0.11,1.35,0.32c0.36,0.21,0.62,0.56,0.79,1.03c0.17,0.47,0.25,1.07,0.25,1.81
		s-0.1,1.63-0.29,2.67c-0.18,1.06-0.4,1.95-0.65,2.69s-0.55,1.34-0.89,1.8c-0.34,0.47-0.72,0.8-1.15,1.02
		C66.16,20.9,65.67,21,65.13,21s-0.99-0.11-1.35-0.32c-0.36-0.21-0.62-0.55-0.8-1.02c-0.18-0.46-0.26-1.07-0.25-1.8
		S62.84,16.23,63.03,15.17z M64.96,15.17c-0.14,0.86-0.24,1.56-0.3,2.12c-0.06,0.55-0.06,0.99-0.02,1.31
		c0.04,0.32,0.13,0.54,0.25,0.67c0.12,0.13,0.29,0.19,0.51,0.19c0.21,0,0.4-0.06,0.58-0.19c0.18-0.12,0.34-0.35,0.5-0.67
		c0.16-0.32,0.31-0.75,0.45-1.31c0.14-0.55,0.29-1.26,0.43-2.12c0.15-0.86,0.26-1.56,0.31-2.12c0.06-0.55,0.06-0.99,0.02-1.31
		c-0.04-0.32-0.13-0.54-0.26-0.67c-0.13-0.13-0.3-0.19-0.51-0.19c-0.22,0-0.41,0.06-0.58,0.19s-0.33,0.35-0.49,0.67
		c-0.16,0.32-0.31,0.75-0.45,1.31C65.26,13.61,65.11,14.32,64.96,15.17z"/>
        <path class="st1" d="M72.74,16.19l-0.81,4.62h-1.91L72,9.53h2.61c1.09,0,1.87,0.27,2.34,0.81c0.47,0.54,0.61,1.37,0.42,2.48
		c-0.15,0.81-0.44,1.48-0.86,2s-0.93,0.89-1.53,1.1l1.4,4.89h-2.02l-1.12-4.62H72.74z M73.42,14.67c0.57,0,1.02-0.14,1.35-0.42
		c0.33-0.28,0.55-0.75,0.66-1.42c0.12-0.68,0.07-1.15-0.15-1.4s-0.61-0.38-1.16-0.38h-0.47l-0.64,3.62H73.42z"/>
        <path class="st1" d="M85.71,9.53l-0.26,1.52h-2.22l-1.72,9.76H79.6l1.72-9.76H79.1l0.26-1.52H85.71z"/>
        <path class="st1" d="M93.01,20.81l1.98-11.28h2.56c1.11,0,1.88,0.45,2.31,1.35s0.47,2.33,0.11,4.29c-0.34,1.96-0.88,3.4-1.62,4.29
		c-0.74,0.9-1.67,1.35-2.78,1.35H93.01z M95.9,19.29c0.23,0,0.44-0.06,0.64-0.19c0.2-0.12,0.39-0.34,0.56-0.65s0.34-0.73,0.5-1.26
		s0.31-1.21,0.45-2.02c0.15-0.81,0.24-1.49,0.27-2.02c0.03-0.53,0.01-0.95-0.06-1.26s-0.18-0.52-0.33-0.65s-0.34-0.19-0.57-0.19
		h-0.73l-1.47,8.24H95.9z"/>
        <path class="st1" d="M108.36,9.53l-0.26,1.52h-3.2l-0.57,3.17h2.93l-0.26,1.5h-2.93l-0.64,3.57h3.28l-0.26,1.52h-5.18l1.98-11.28
		H108.36z"/>
        <path class="st1" d="M111.7,18.56l2.99-9.02h1.95l-4.27,11.28h-2.11l-0.31-11.28h1.95L111.7,18.56z"/>
        <path class="st1" d="M123.74,9.53l-0.26,1.52h-3.2l-0.57,3.17h2.93l-0.26,1.5h-2.93l-0.64,3.57h3.28l-0.26,1.52h-5.18l1.98-11.28
		H123.74z"/>
        <path class="st1" d="M127.87,9.53l-1.72,9.76h3.86l-0.26,1.52h-5.77l1.98-11.28H127.87z"/>
        <path class="st1" d="M132.23,15.17c0.19-1.04,0.41-1.94,0.66-2.67c0.25-0.74,0.55-1.34,0.89-1.81c0.34-0.47,0.73-0.81,1.16-1.03
		c0.43-0.21,0.92-0.32,1.46-0.32c0.54,0,0.99,0.11,1.35,0.32c0.36,0.21,0.62,0.56,0.79,1.03c0.17,0.47,0.25,1.07,0.25,1.81
		s-0.1,1.63-0.29,2.67c-0.18,1.06-0.4,1.95-0.65,2.69s-0.55,1.34-0.89,1.8c-0.34,0.47-0.72,0.8-1.15,1.02
		c-0.43,0.21-0.92,0.32-1.46,0.32s-0.99-0.11-1.35-0.32s-0.62-0.55-0.8-1.02c-0.18-0.46-0.26-1.07-0.25-1.8
		S132.05,16.23,132.23,15.17z M134.17,15.17c-0.14,0.86-0.24,1.56-0.3,2.12c-0.06,0.55-0.06,0.99-0.02,1.31
		c0.04,0.32,0.13,0.54,0.25,0.67c0.12,0.13,0.29,0.19,0.51,0.19c0.21,0,0.4-0.06,0.58-0.19c0.18-0.12,0.34-0.35,0.5-0.67
		c0.16-0.32,0.31-0.75,0.45-1.31c0.14-0.55,0.29-1.26,0.43-2.12c0.15-0.86,0.26-1.56,0.31-2.12c0.06-0.55,0.06-0.99,0.02-1.31
		c-0.04-0.32-0.13-0.54-0.26-0.67c-0.13-0.13-0.3-0.19-0.51-0.19c-0.22,0-0.41,0.06-0.58,0.19s-0.33,0.35-0.49,0.67
		c-0.16,0.32-0.31,0.75-0.45,1.31C134.47,13.61,134.32,14.32,134.17,15.17z"/>
        <path class="st1" d="M141.87,16.62l-0.74,4.2h-1.91l1.98-11.28h2.56c1.15,0,1.97,0.27,2.46,0.82s0.62,1.45,0.41,2.72
		c-0.23,1.26-0.68,2.17-1.36,2.72s-1.59,0.82-2.74,0.82H141.87z M144.7,13.07c0.13-0.77,0.1-1.3-0.1-1.59
		c-0.2-0.29-0.58-0.43-1.14-0.43h-0.61l-0.73,4.04h0.61c0.56,0,0.99-0.14,1.3-0.43C144.34,14.38,144.56,13.85,144.7,13.07z"/>
        <path class="st1" d="M154.5,9.53l-0.26,1.52h-3.2l-0.57,3.17h2.93l-0.26,1.5h-2.93l-0.64,3.57h3.28l-0.26,1.52h-5.18l1.98-11.28
		H154.5z"/>
        <path class="st1" d="M157.32,16.19l-0.81,4.62h-1.91l1.98-11.28h2.61c1.09,0,1.87,0.27,2.34,0.81c0.47,0.54,0.61,1.37,0.42,2.48
		c-0.15,0.81-0.44,1.48-0.86,2s-0.93,0.89-1.53,1.1l1.4,4.89h-2.02l-1.12-4.62H157.32z M158,14.67c0.57,0,1.02-0.14,1.35-0.42
		c0.33-0.28,0.55-0.75,0.66-1.42c0.12-0.68,0.07-1.15-0.15-1.4s-0.61-0.38-1.16-0.38h-0.47l-0.64,3.62H158z"/>
</g>
    <path class="st2" d="M22.69,4.5c-1.91,0-3.33,0.77-4.33,1.84c-1,1.07-1.54,1.69-1.57,1.84c-0.04-0.15-0.55-0.77-1.57-1.84
	S12.9,4.5,10.88,4.5c-3.21,0.16-5.81,2.45-5.9,5.51c0,0.96,0.18,2.79,1.32,4.91s4.61,5.4,10.49,9.79c5.87-4.39,9.39-7.66,10.51-9.79
	c1.12-2.13,1.3-3.99,1.3-4.91C28.5,6.91,25.95,4.66,22.69,4.5z"/>
</svg>
